<?xml version="1.0" standalone="no"?>
<svg viewBox="0 0 200 200" xmlns="http://www.w3.org/2000/svg">
  <path fill="#FA2145" d="M38.7,-52.8C54.4,-41.9,74.1,-36.2,80.2,-24.4C86.4,-12.6,78.8,5.3,69.2,18.7C59.6,32.2,48,41.2,36.2,52.4C24.3,63.7,12.1,77.2,-3,81.3C-18.1,85.4,-36.1,80,-45.6,67.9C-55.2,55.9,-56.2,37.2,-60.2,20.6C-64.2,3.9,-71.2,-10.7,-67.7,-22.3C-64.3,-33.8,-50.6,-42.2,-37.5,-54C-24.5,-65.7,-12.3,-80.8,-0.4,-80.3C11.5,-79.8,23.1,-63.7,38.7,-52.8Z" transform="translate(100 100)" />
</svg>
