<?xml version="1.0" encoding="utf-8"?>
<!-- Generator: Adobe Illustrator 24.3.0, SVG Export Plug-In . SVG Version: 6.00 Build 0)  -->
<svg version="1.1" id="Warstwa_1" xmlns="http://www.w3.org/2000/svg" xmlns:xlink="http://www.w3.org/1999/xlink" x="0px" y="0px"
	 viewBox="0 0 1024 1024" style="enable-background:new 0 0 1024 1024;" xml:space="preserve">
<style type="text/css">
	.st0{fill:#272727;}
</style>
<path class="st0" d="M946.2,845L727.7,624.7c-2.5-2.5-5.4-4.5-8-6.6c36.9-57.1,58.5-125.1,58.5-198.4
	c0-201.3-161.8-364.4-361.5-364.4c-199.6,0-361.5,163.1-361.5,364.4c0,201.3,161.9,364.4,361.5,364.4c72.6,0,140.2-21.8,196.9-59
	c2.1,2.8,4,5.5,6.5,8l218.5,220.4c14.9,15,34.3,22.5,53.8,22.5c19.5,0,38.9-7.5,53.8-22.4C975.9,923.5,975.9,875,946.2,845
	 M416.7,669c-136.3,0-247.3-111.9-247.3-249.3c0-137.5,111-249.4,247.3-249.4S664,282.2,664,419.7C664,557.1,553,669,416.7,669"/>
</svg>
